<svg width="14" height="14" viewBox="0 0 14 14" fill="none" xmlns="http://www.w3.org/2000/svg">
<path d="M13.5179 12.8109L9.74188 9.03488C10.6493 7.94554 11.1018 6.5483 11.0052 5.13383C10.9087 3.71937 10.2705 2.39658 9.2235 1.44064C8.17649 0.484701 6.80125 -0.0307827 5.38386 0.00142309C3.96647 0.0336289 2.61606 0.611044 1.61355 1.61355C0.611044 2.61606 0.0336289 3.96647 0.00142309 5.38386C-0.0307827 6.80125 0.484701 8.17649 1.44064 9.2235C2.39658 10.2705 3.71937 10.9087 5.13383 11.0052C6.5483 11.1018 7.94554 10.6493 9.03488 9.74188L12.8109 13.5179L13.5179 12.8109ZM1.01788 5.51788C1.01788 4.62786 1.2818 3.75784 1.77627 3.01781C2.27073 2.27779 2.97354 1.70102 3.7958 1.36042C4.61807 1.01983 5.52287 0.930713 6.39579 1.10435C7.2687 1.27798 8.07052 1.70656 8.69986 2.3359C9.3292 2.96524 9.75778 3.76706 9.93141 4.63997C10.105 5.51289 10.0159 6.41769 9.67534 7.23996C9.33474 8.06222 8.75797 8.76503 8.01795 9.25949C7.27793 9.75396 6.4079 10.0179 5.51788 10.0179C4.32481 10.0166 3.18099 9.54203 2.33736 8.6984C1.49373 7.85477 1.0192 6.71095 1.01788 5.51788Z" fill="#929292" fill-opacity="0.5"/>
</svg>
