<svg width="20" height="21" viewBox="0 0 20 21" fill="none" xmlns="http://www.w3.org/2000/svg">
<path d="M9.5526 11.9411C10.8459 11.9411 11.8943 10.8927 11.8943 9.59948C11.8943 8.30621 10.8459 7.25781 9.5526 7.25781C8.25934 7.25781 7.21094 8.30621 7.21094 9.59948C7.21094 10.8927 8.25934 11.9411 9.5526 11.9411Z" stroke="#630A10" stroke-linecap="round" stroke-linejoin="round"/>
<path d="M13.8766 17.3336C13.8766 15.392 11.9432 13.8086 9.55156 13.8086C7.15989 13.8086 5.22656 15.3836 5.22656 17.3336" stroke="#630A10" stroke-linecap="round" stroke-linejoin="round"/>
<path d="M17.5013 10.9167C17.5013 15.2917 13.9596 18.8333 9.58464 18.8333C5.20964 18.8333 1.66797 15.2917 1.66797 10.9167C1.66797 6.54167 5.20964 3 9.58464 3C10.6763 3 11.718 3.21666 12.668 3.61666C12.5596 3.94999 12.5013 4.3 12.5013 4.66667C12.5013 5.29167 12.6763 5.88333 12.9846 6.38333C13.1513 6.66666 13.368 6.92498 13.618 7.14164C14.2013 7.67498 14.9763 8 15.8346 8C16.2013 8 16.5513 7.94165 16.8763 7.82498C17.2763 8.77498 17.5013 9.825 17.5013 10.9167Z" fill="#630A10" fill-opacity="0.4" stroke="#630A10" stroke-linecap="round" stroke-linejoin="round"/>
<path d="M19.1667 4.66536C19.1667 4.93203 19.1333 5.19036 19.0667 5.44036C18.9917 5.77369 18.8583 6.0987 18.6833 6.38203C18.2833 7.05703 17.6417 7.58201 16.875 7.82368C16.55 7.94035 16.2 7.9987 15.8333 7.9987C14.975 7.9987 14.2 7.67367 13.6167 7.14034C13.3667 6.92367 13.15 6.66536 12.9833 6.38203C12.675 5.88203 12.5 5.29036 12.5 4.66536C12.5 4.2987 12.5583 3.94869 12.6667 3.61536C12.825 3.13202 13.0917 2.69872 13.4417 2.34038C14.05 1.71538 14.9 1.33203 15.8333 1.33203C16.8167 1.33203 17.7083 1.75705 18.3083 2.44038C18.8417 3.03205 19.1667 3.81536 19.1667 4.66536Z" fill="#630A10" fill-opacity="0.4" stroke="#630A10" stroke-miterlimit="10" stroke-linecap="round" stroke-linejoin="round"/>
<path d="M17.0732 4.64844H14.5898" stroke="#630A10" stroke-miterlimit="10" stroke-linecap="round" stroke-linejoin="round"/>
<path d="M15.832 3.43359V5.92525" stroke="#630A10" stroke-miterlimit="10" stroke-linecap="round" stroke-linejoin="round"/>
</svg>
