<svg width="24" height="24" viewBox="0 0 24 24" fill="none" xmlns="http://www.w3.org/2000/svg">
<g clip-path="url(#clip0_2101_13640)">
<path d="M13.7659 21.1463C13.7659 19.5963 12.5049 18.3398 10.9493 18.3398C9.39376 18.3398 8.13281 19.5963 8.13281 21.1463C8.13281 22.6963 9.39376 23.9528 10.9493 23.9528C12.5049 23.9528 13.7659 22.6963 13.7659 21.1463Z" fill="#F7C92B"/>
<path d="M10.9514 18.3398C10.6667 18.3398 10.3919 18.3823 10.1328 18.4607C11.289 18.8101 12.1307 19.8799 12.1307 21.1463C12.1307 22.4125 11.289 23.4825 10.1328 23.8319C10.3919 23.9103 10.6667 23.9528 10.9514 23.9528C12.507 23.9528 13.768 22.6963 13.768 21.1463C13.768 19.5963 12.507 18.3398 10.9514 18.3398Z" fill="#F2B51D"/>
<path d="M11.2812 4.7675C10.3766 4.94859 9.49614 4.36485 9.31433 3.46342C9.13251 2.56218 9.7185 1.68474 10.623 1.50364C11.5275 1.32255 12.4081 1.90629 12.5899 2.80772C12.7715 3.70897 12.1857 4.58641 11.2812 4.7675Z" fill="#F7C92B"/>
<path d="M12.5896 2.80772C12.4078 1.90629 11.5272 1.32255 10.6227 1.50364C10.5385 1.52049 10.4572 1.54356 10.3789 1.57176C10.9069 1.76439 11.325 2.21812 11.4439 2.80772C11.6088 3.6251 11.1421 4.42289 10.3791 4.69938C10.6583 4.80119 10.9682 4.83012 11.281 4.7675C12.1855 4.58641 12.7713 3.70897 12.5896 2.80772Z" fill="#F2B51D"/>
<path d="M17.9273 20.6773H3.9753C2.72683 20.6773 1.71484 19.6689 1.71484 18.4251C1.71484 17.7365 2.02765 17.0848 2.56556 16.6525L3.01377 16.2921C4.05052 15.459 4.65338 14.2031 4.65338 12.8759V10.5089C4.65338 7.01654 7.4945 4.18555 10.9994 4.18555C14.5041 4.18555 17.3454 7.01654 17.3454 10.5089V12.9197C17.3454 14.2217 17.9257 15.4568 18.9294 16.2906L19.3659 16.6532C19.8867 17.0859 20.1878 17.7267 20.1878 18.4024V18.4251C20.1878 19.6689 19.1758 20.6773 17.9273 20.6773Z" fill="#F7E249"/>
<path d="M19.3655 16.6534L18.929 16.2908C17.9253 15.4568 17.345 14.2219 17.345 12.9197V10.5089C17.345 7.01672 14.5037 4.18555 10.999 4.18555C10.378 4.18555 9.77802 4.2749 9.21094 4.44061C11.8451 5.20984 13.7689 7.63544 13.7689 10.5089V12.9197C13.7689 14.2219 14.3492 15.4568 15.3529 16.2908L15.7896 16.6534C16.3103 17.0861 16.6115 17.7269 16.6115 18.4026V18.4253C16.6115 19.6691 15.5995 20.6775 14.351 20.6775H17.9271C19.1754 20.6775 20.1874 19.6691 20.1874 18.4253V18.4026C20.1874 17.7269 19.8863 17.0861 19.3655 16.6534Z" fill="#F7C92B"/>
<path d="M22.358 5.38019C22.358 2.38293 19.9196 -0.046875 16.9115 -0.046875C13.9034 -0.046875 11.4648 2.38293 11.4648 5.38019C11.4648 8.37744 13.9034 10.8073 16.9115 10.8073C19.9196 10.8073 22.358 8.37744 22.358 5.38019Z" fill="#FC476E"/>
<path d="M18.3745 0.151367C19.7636 1.13483 20.6697 2.7511 20.6697 4.57831C20.6697 7.57556 18.2313 10.0054 15.2232 10.0054C14.7168 10.0054 14.2268 9.93634 13.7617 9.80743C14.6512 10.4373 15.7387 10.8076 16.9131 10.8076C19.921 10.8076 22.3596 8.37775 22.3596 5.38049C22.3596 2.8877 20.6728 0.787842 18.3745 0.151367Z" fill="#CC2B5A"/>
</g>
<defs>
<clipPath id="clip0_2101_13640">
<rect width="24" height="24" fill="white"/>
</clipPath>
</defs>
</svg>
