<svg width="23" height="24" viewBox="0 0 23 24" fill="none" xmlns="http://www.w3.org/2000/svg">
<path d="M22.3785 3.86275V7.58106H0.792969V3.86275C0.792969 3.30694 1.10589 2.82404 1.5656 2.58163C1.76746 2.47442 1.99731 2.41406 2.24166 2.41406H20.9298C21.4856 2.41406 21.9685 2.72698 22.2109 3.1867C22.3181 3.38855 22.3785 3.61841 22.3785 3.86275Z" fill="#FD646F"/>
<path d="M6.58947 2.41406V5.11828C6.58947 5.38484 6.37313 5.60118 6.10657 5.60118H3.88524C3.61868 5.60118 3.40234 5.38484 3.40234 5.11828V2.41406H6.58947Z" fill="#FC4755"/>
<path d="M18.9996 2.41406V5.11828C18.9996 5.38484 18.7833 5.60118 18.5167 5.60118H16.2954C16.0288 5.60118 15.8125 5.38484 15.8125 5.11828V2.41406H18.9996Z" fill="#FC4755"/>
<path d="M1.5656 2.58203V7.58146H0.792969V3.86316C0.792969 3.30734 1.10589 2.82445 1.5656 2.58203Z" fill="#FC4755"/>
<path d="M4.75317 10.4707H7.23767C7.371 10.4707 7.47912 10.5788 7.47912 10.7122V13.1967C7.47912 13.33 7.371 13.4381 7.23767 13.4381H4.75317C4.61984 13.4381 4.51172 13.33 4.51172 13.1967V10.7122C4.51172 10.5788 4.61984 10.4707 4.75317 10.4707Z" fill="#E6E6E6"/>
<path d="M4.75317 14.1621H7.23767C7.371 14.1621 7.47912 14.2702 7.47912 14.4036V16.8886C7.47912 17.0219 7.371 17.13 7.23767 17.13H4.75317C4.61984 17.13 4.51172 17.0219 4.51172 16.8886V14.4036C4.51172 14.2702 4.61984 14.1621 4.75317 14.1621Z" fill="#E6E6E6"/>
<path d="M4.75317 17.8545H7.23767C7.371 17.8545 7.47912 17.9626 7.47912 18.0959V20.5805C7.47912 20.7138 7.371 20.8219 7.23767 20.8219H4.75317C4.61984 20.8219 4.51172 20.7138 4.51172 20.5805V18.0959C4.51172 17.9626 4.61984 17.8545 4.75317 17.8545Z" fill="#E6E6E6"/>
<path d="M8.44457 10.4707H10.9822C11.1155 10.4707 11.2236 10.5788 11.2236 10.7122V13.1967C11.2236 13.33 11.1155 13.4381 10.9822 13.4381H8.44457C8.31125 13.4381 8.20312 13.33 8.20312 13.1967V10.7122C8.20312 10.5788 8.31125 10.4707 8.44457 10.4707Z" fill="#E6E6E6"/>
<path d="M8.44457 14.1621H10.9822C11.1155 14.1621 11.2236 14.2702 11.2236 14.4036V16.8886C11.2236 17.0219 11.1155 17.13 10.9822 17.13H8.44457C8.31125 17.13 8.20312 17.0219 8.20312 16.8886V14.4036C8.20312 14.2702 8.31125 14.1621 8.44457 14.1621Z" fill="#E6E6E6"/>
<path d="M8.44457 17.8545H10.9822C11.1155 17.8545 11.2236 17.9626 11.2236 18.0959V20.5805C11.2236 20.7138 11.1155 20.8219 10.9822 20.8219H8.44457C8.31125 20.8219 8.20312 20.7138 8.20312 20.5805V18.0959C8.20312 17.9626 8.31125 17.8545 8.44457 17.8545Z" fill="#E6E6E6"/>
<path d="M12.1907 10.4707H14.7283C14.8616 10.4707 14.9697 10.5788 14.9697 10.7122V13.1967C14.9697 13.33 14.8616 13.4381 14.7283 13.4381H12.1907C12.0573 13.4381 11.9492 13.33 11.9492 13.1967V10.7122C11.9492 10.5788 12.0573 10.4707 12.1907 10.4707Z" fill="#E6E6E6"/>
<path d="M12.1907 14.1621H14.7283C14.8616 14.1621 14.9697 14.2702 14.9697 14.4036V16.8886C14.9697 17.0219 14.8616 17.13 14.7283 17.13H12.1907C12.0573 17.13 11.9492 17.0219 11.9492 16.8886V14.4036C11.9492 14.2702 12.0573 14.1621 12.1907 14.1621Z" fill="#E6E6E6"/>
<path d="M12.1907 17.8545H14.7283C14.8616 17.8545 14.9697 17.9626 14.9697 18.0959V20.5805C14.9697 20.7138 14.8616 20.8219 14.7283 20.8219H12.1907C12.0573 20.8219 11.9492 20.7138 11.9492 20.5805V18.0959C11.9492 17.9626 12.0573 17.8545 12.1907 17.8545Z" fill="#E6E6E6"/>
<path d="M18.6588 10.7122V13.1967C18.6588 13.33 18.5507 13.4381 18.4174 13.4381H15.9329C15.7995 13.4381 15.6914 13.33 15.6914 13.1967V10.7122C15.6914 10.5788 15.7995 10.4707 15.9329 10.4707H18.4174C18.5507 10.4707 18.6588 10.5788 18.6588 10.7122Z" fill="#E6E6E6"/>
<path d="M15.9329 14.1621H18.4174C18.5507 14.1621 18.6588 14.2702 18.6588 14.4036V16.8886C18.6588 17.0219 18.5507 17.13 18.4174 17.13H15.9329C15.7995 17.13 15.6914 17.0219 15.6914 16.8886V14.4036C15.6914 14.2702 15.7995 14.1621 15.9329 14.1621Z" fill="#E6E6E6"/>
<path d="M15.9329 17.8545H18.4174C18.5507 17.8545 18.6588 17.9626 18.6588 18.0959V20.5805C18.6588 20.7138 18.5507 20.8219 18.4174 20.8219H15.9329C15.7995 20.8219 15.6914 20.7138 15.6914 20.5805V18.0959C15.6914 17.9626 15.7995 17.8545 15.9329 17.8545Z" fill="#E6E6E6"/>
<path d="M0.792969 7.24414V22.552C0.792969 23.3521 1.4415 24.0007 2.24166 24.0007H20.9298C21.7299 24.0007 22.3785 23.3521 22.3785 22.552V7.24414H0.792969Z" fill="#E3E2E8"/>
<path d="M6.58637 0.482897V4.34608C6.58637 4.61264 6.37003 4.82897 6.10347 4.82897H4.65477C4.38821 4.82897 4.17188 4.61264 4.17188 4.34608V0.482897C4.17188 0.216338 4.38821 0 4.65477 0H6.10347C6.37003 0 6.58637 0.216338 6.58637 0.482897Z" fill="#50758D"/>
<path d="M4.51172 10.4707H7.47912V13.4381H4.51172V10.4707Z" fill="#FFAC5C"/>
<path d="M15.6914 10.4707H18.6588V13.4381H15.6914V10.4707Z" fill="#FFAC5C"/>
<path d="M8.20312 10.4697H11.2236V13.4371H8.20312V10.4697Z" fill="#FFAC5C"/>
<path d="M4.51172 14.1621H7.47912V17.13H4.51172V14.1621Z" fill="#FFAC5C"/>
<path d="M15.6914 14.1621H18.6588V17.13H15.6914V14.1621Z" fill="#B8B8B8"/>
<path d="M8.20312 14.1621H11.2236V17.13H8.20312V14.1621Z" fill="#FFAC5C"/>
<path d="M4.51172 17.8535H7.47912V20.8209H4.51172V17.8535Z" fill="#B8B8B8"/>
<path d="M15.6914 17.8535H18.6588V20.8209H15.6914V17.8535Z" fill="#B8B8B8"/>
<path d="M8.20312 17.8535H11.2236V20.8209H8.20312V17.8535Z" fill="#B8B8B8"/>
<path d="M11.9492 10.4707H14.9697V13.4381H11.9492V10.4707Z" fill="#FFAC5C"/>
<path d="M11.9492 14.1621H14.9697V17.13H11.9492V14.1621Z" fill="#FFAC5C"/>
<path d="M11.9492 17.8535H14.9697V20.8209H11.9492V17.8535Z" fill="#B8B8B8"/>
<path d="M18.9965 0.482897V4.34608C18.9965 4.61264 18.7802 4.82897 18.5136 4.82897H17.0649C16.7984 4.82897 16.582 4.61264 16.582 4.34608V0.482897C16.582 0.216338 16.7984 0 17.0649 0H18.5136C18.7802 0 18.9965 0.216338 18.9965 0.482897Z" fill="#50758D"/>
<path d="M0.792969 7.24414V22.552C0.792969 23.3521 1.4415 24.0007 2.24166 24.0007H2.77671C2.10114 23.878 1.58975 23.287 1.58975 22.5761V8.26885C1.64432 8.12157 1.78581 8.01678 1.95192 8.01678H22.3785V7.26829V7.24414H0.792969Z" fill="#A09DB2"/>
<path d="M5.4274 4.82897H4.65477C4.38821 4.82897 4.17188 4.61264 4.17188 4.34608V0.482897C4.17188 0.216338 4.38821 0 4.65477 0H4.94451V4.34608C4.94451 4.61264 5.16084 4.82897 5.4274 4.82897Z" fill="#2B597F"/>
<path d="M17.8376 4.82897H17.0649C16.7984 4.82897 16.582 4.61264 16.582 4.34608V0.482897C16.582 0.216338 16.7984 0 17.0649 0H17.3547V4.34608C17.3547 4.61264 17.571 4.82897 17.8376 4.82897Z" fill="#2B597F"/>
</svg>
