<svg width="20" height="21" viewBox="0 0 20 21" fill="none" xmlns="http://www.w3.org/2000/svg">
<path d="M1.66797 14.7148H10.0013" stroke="#B8B8B8" stroke-miterlimit="10" stroke-linecap="round" stroke-linejoin="round"/>
<path d="M3.51794 11.75H8.15133C9.63466 11.75 10.0013 12.1167 10.0013 13.5833V17.0083C10.0013 18.475 9.63466 18.8417 8.15133 18.8417H3.51794C2.03461 18.8417 1.66797 18.475 1.66797 17.0083V13.5833C1.66797 12.1167 2.03461 11.75 3.51794 11.75Z" stroke="#B8B8B8" stroke-linecap="round" stroke-linejoin="round"/>
<path d="M18.3333 13C18.3333 16.225 15.725 18.8333 12.5 18.8333L13.375 17.375" stroke="#B8B8B8" stroke-linecap="round" stroke-linejoin="round"/>
<path d="M1.66797 8.0013C1.66797 4.7763 4.2763 2.16797 7.5013 2.16797L6.62631 3.6263" stroke="#B8B8B8" stroke-linecap="round" stroke-linejoin="round"/>
<path d="M15.418 9.66797C17.489 9.66797 19.168 7.98904 19.168 5.91797C19.168 3.8469 17.489 2.16797 15.418 2.16797C13.3469 2.16797 11.668 3.8469 11.668 5.91797C11.668 7.98904 13.3469 9.66797 15.418 9.66797Z" stroke="#B8B8B8" stroke-linecap="round" stroke-linejoin="round"/>
</svg>
