<svg width="100" height="100" viewBox="0 0 100 100" fill="none" xmlns="http://www.w3.org/2000/svg">
<g clip-path="url(#clip0_830_28948)">
<path d="M50 100C77.6142 100 100 77.6142 100 50C100 22.3858 77.6142 0 50 0C22.3858 0 0 22.3858 0 50C0 77.6142 22.3858 100 50 100Z" fill="#34835E"/>
<path d="M37.2266 72.555L62.9363 98.2648C84.2297 92.5866 100.003 73.1859 100.003 49.9998C100.003 49.5266 100.003 49.0534 100.003 48.5802L79.8133 29.9683L37.2266 72.555Z" fill="#205C40"/>
<path d="M51.2606 61.1989C53.4688 63.4071 53.4688 67.1926 51.2606 69.4008L46.6865 73.975C44.4783 76.1832 40.6928 76.1832 38.4846 73.975L18.453 53.7857C16.2448 51.5775 16.2448 47.792 18.453 45.5838L23.0272 41.0097C25.2354 38.8015 29.0208 38.8015 31.2291 41.0097L51.2606 61.1989Z" fill="white"/>
<path d="M68.7705 26.3407C70.9787 24.1325 74.7642 24.1325 76.9724 26.3407L81.5466 30.9149C83.7548 33.1231 83.7548 36.9085 81.5466 39.1168L46.8462 73.6594C44.638 75.8676 40.8525 75.8676 38.6443 73.6594L34.0702 69.0852C31.862 66.877 31.862 63.0915 34.0702 60.8833L68.7705 26.3407Z" fill="white"/>
</g>
<defs>
<clipPath id="clip0_830_28948">
<rect width="100" height="100" fill="white"/>
</clipPath>
</defs>
</svg>
