<svg width="24" height="24" viewBox="0 0 24 24" fill="none" xmlns="http://www.w3.org/2000/svg">
<g clip-path="url(#clip0_4870_54484)">
<path d="M11.8912 12.9788L16.3913 16.3538C16.7228 16.6024 17.1926 16.5352 17.4413 16.2037C17.6899 15.8722 17.6228 15.4024 17.2913 15.1537L13.125 12V5.625C13.125 5.21062 12.7894 4.875 12.375 4.875C11.9606 4.875 11.625 5.21062 11.625 5.625V12.375C11.625 12.624 11.7292 12.8483 11.8912 12.9788Z" fill="#FACE7F"/>
<path d="M12.7511 0.75C7.26149 0.75 2.57361 4.71225 1.65861 10.125L1.37361 9.70125C1.14148 9.35738 0.674982 9.26663 0.331106 9.49875C-0.0127689 9.73088 -0.103519 10.1974 0.128606 10.5413L1.62861 12.7913C1.75198 12.9788 1.95298 13.1014 2.17611 13.125H2.25111C2.44986 13.1243 2.63998 13.0448 2.77986 12.9037L4.65486 11.0287C4.94774 10.7359 4.94774 10.2604 4.65486 9.9675C4.36199 9.67463 3.88649 9.67463 3.59361 9.9675L3.12861 10.4362C3.99224 5.121 9.00112 1.51275 14.316 2.37637C19.6309 3.24 23.2399 8.2485 22.3763 13.5637C21.6094 18.2835 17.5328 21.7507 12.7511 21.75C9.73537 21.8048 6.88311 20.382 5.11236 17.94C4.87199 17.6025 4.40361 17.5234 4.06611 17.7638C3.72861 18.0041 3.64949 18.4725 3.88986 18.81C5.94036 21.6495 9.24937 23.3074 12.7511 23.25C18.9645 23.25 24.0011 18.2134 24.0011 12C24.0011 5.78662 18.9645 0.75 12.7511 0.75Z" fill="#FACE7F"/>
</g>
<defs>
<clipPath id="clip0_4870_54484">
<rect width="24" height="24" fill="white"/>
</clipPath>
</defs>
</svg>
