<svg width="20" height="21" viewBox="0 0 20 21" fill="none" xmlns="http://www.w3.org/2000/svg">
<path d="M15.4154 11.041V14.1243C15.4154 16.7243 12.9904 18.8327 9.9987 18.8327C7.00703 18.8327 4.58203 16.7243 4.58203 14.1243V11.041C4.58203 13.641 7.00703 15.4993 9.9987 15.4993C12.9904 15.4993 15.4154 13.641 15.4154 11.041Z" fill="#630A10" fill-opacity="0.25" stroke="#630A10" stroke-linecap="round" stroke-linejoin="round"/>
<path d="M15.4154 6.87435C15.4154 7.63268 15.207 8.33268 14.8404 8.93268C13.9487 10.3993 12.1154 11.3327 9.9987 11.3327C7.88203 11.3327 6.0487 10.3993 5.15703 8.93268C4.79037 8.33268 4.58203 7.63268 4.58203 6.87435C4.58203 5.57435 5.19036 4.39935 6.16536 3.54935C7.14869 2.69102 8.4987 2.16602 9.9987 2.16602C11.4987 2.16602 12.8487 2.69102 13.832 3.54102C14.807 4.39935 15.4154 5.57435 15.4154 6.87435Z" fill="#630A10" fill-opacity="0.25" stroke="#630A10" stroke-linecap="round" stroke-linejoin="round"/>
<path d="M15.4154 6.87435V11.041C15.4154 13.641 12.9904 15.4993 9.9987 15.4993C7.00703 15.4993 4.58203 13.641 4.58203 11.041V6.87435C4.58203 4.27435 7.00703 2.16602 9.9987 2.16602C11.4987 2.16602 12.8487 2.69102 13.832 3.54102C14.807 4.39935 15.4154 5.57435 15.4154 6.87435Z" fill="#630A10" fill-opacity="0.25" stroke="#630A10" stroke-linecap="round" stroke-linejoin="round"/>
</svg>
