<svg width="20" height="21" viewBox="0 0 20 21" fill="none" xmlns="http://www.w3.org/2000/svg">
<path d="M15.4154 11.042V14.1253C15.4154 16.7253 12.9904 18.8337 9.9987 18.8337C7.00703 18.8337 4.58203 16.7253 4.58203 14.1253V11.042C4.58203 13.642 7.00703 15.5003 9.9987 15.5003C12.9904 15.5003 15.4154 13.642 15.4154 11.042Z" stroke="#B8B8B8" stroke-linecap="round" stroke-linejoin="round"/>
<path d="M15.4154 6.87533C15.4154 7.63366 15.207 8.33366 14.8404 8.93366C13.9487 10.4003 12.1154 11.3337 9.9987 11.3337C7.88203 11.3337 6.0487 10.4003 5.15703 8.93366C4.79037 8.33366 4.58203 7.63366 4.58203 6.87533C4.58203 5.57533 5.19036 4.40033 6.16536 3.55033C7.14869 2.69199 8.4987 2.16699 9.9987 2.16699C11.4987 2.16699 12.8487 2.69199 13.832 3.54199C14.807 4.40033 15.4154 5.57533 15.4154 6.87533Z" stroke="#B8B8B8" stroke-linecap="round" stroke-linejoin="round"/>
<path d="M15.4154 6.87533V11.042C15.4154 13.642 12.9904 15.5003 9.9987 15.5003C7.00703 15.5003 4.58203 13.642 4.58203 11.042V6.87533C4.58203 4.27533 7.00703 2.16699 9.9987 2.16699C11.4987 2.16699 12.8487 2.69199 13.832 3.54199C14.807 4.40033 15.4154 5.57533 15.4154 6.87533Z" stroke="#B8B8B8" stroke-linecap="round" stroke-linejoin="round"/>
</svg>
