<svg width="20" height="20" viewBox="0 0 20 20" fill="none" xmlns="http://www.w3.org/2000/svg">
<path d="M5.83464 6.66602H3.33464C2.41797 6.66602 1.66797 5.91602 1.66797 4.99935V3.33268C1.66797 2.41602 2.41797 1.66602 3.33464 1.66602H5.83464C6.7513 1.66602 7.5013 2.41602 7.5013 3.33268V4.99935C7.5013 5.91602 6.7513 6.66602 5.83464 6.66602Z" fill="#630A10" fill-opacity="0.25" stroke="#630A10" stroke-linecap="round" stroke-linejoin="round"/>
<path d="M17.332 5.83333H14.332C13.782 5.83333 13.332 5.38332 13.332 4.83332V3.50001C13.332 2.95001 13.782 2.5 14.332 2.5H17.332C17.882 2.5 18.332 2.95001 18.332 3.50001V4.83332C18.332 5.38332 17.882 5.83333 17.332 5.83333Z" fill="#630A10" fill-opacity="0.25" stroke="#630A10" stroke-linecap="round" stroke-linejoin="round"/>
<path d="M17.332 12.0833H14.332C13.782 12.0833 13.332 11.6333 13.332 11.0833V9.75001C13.332 9.20001 13.782 8.75 14.332 8.75H17.332C17.882 8.75 18.332 9.20001 18.332 9.75001V11.0833C18.332 11.6333 17.882 12.0833 17.332 12.0833Z" fill="#630A10" fill-opacity="0.25" stroke="#630A10" stroke-linecap="round" stroke-linejoin="round"/>
<path d="M7.5 4.16602H13.3333" stroke="#630A10" stroke-miterlimit="10" stroke-linecap="round" stroke-linejoin="round"/>
<path d="M10.418 4.16602V14.9993C10.418 15.916 11.168 16.666 12.0846 16.666H13.3346" stroke="#630A10" stroke-miterlimit="10" stroke-linecap="round" stroke-linejoin="round"/>
<path d="M10.418 10.416H13.3346" stroke="#630A10" stroke-miterlimit="10" stroke-linecap="round" stroke-linejoin="round"/>
<path d="M17.332 18.3333H14.332C13.782 18.3333 13.332 17.8833 13.332 17.3333V16C13.332 15.45 13.782 15 14.332 15H17.332C17.882 15 18.332 15.45 18.332 16V17.3333C18.332 17.8833 17.882 18.3333 17.332 18.3333Z" fill="#630A10" fill-opacity="0.25" stroke="#630A10" stroke-linecap="round" stroke-linejoin="round"/>
</svg>
