<svg width="18" height="21" viewBox="0 0 18 21" fill="none" xmlns="http://www.w3.org/2000/svg">
<path d="M8.19097 1.37873H8.99814L9.64388 0.77335L8.99814 0.167969H8.19097C6.52213 0.167969 5.16406 1.52604 5.16406 3.19487C5.16406 3.52905 5.43527 3.80026 5.76944 3.80026H8.99814V3.11416L6.47855 2.58949C6.72837 1.88483 7.40155 1.37873 8.19097 1.37873Z" fill="#B8B8B8"/>
<path d="M12.8341 3.19487C12.8341 3.52905 12.5629 3.80026 12.2287 3.80026H9V3.11416L11.5196 2.58949C11.2698 1.88483 10.5966 1.37873 9.80718 1.37873H9V0.167969H9.80718C11.4764 0.167969 12.8341 1.52604 12.8341 3.19487Z" fill="#222222"/>
<path d="M9.00274 6.11133L12.0296 11.6304L9.00274 20.8322H5.79745C4.85265 20.8322 3.95063 20.4782 3.25808 19.8361C2.56512 19.1936 2.14418 18.3211 2.07274 17.3791L1.21875 6.11133H9.00274Z" fill="#E3E2E8"/>
<path d="M16.784 6.10938L15.93 17.3771C15.8586 18.3191 15.4376 19.1917 14.7447 19.8342C14.0521 20.4763 13.1501 20.8302 12.2053 20.8302H9V6.10938H16.784Z" fill="#A09DB2"/>
<path d="M8.998 8.32031L11.1774 12.5983L8.998 17.9257C6.34966 17.9257 4.19531 15.7713 4.19531 13.123C4.19531 10.4747 6.34966 8.32031 8.998 8.32031Z" fill="#CB2B1F"/>
<path d="M13.8027 13.123C13.8027 15.7713 11.6483 17.9257 9 17.9257V8.32031C11.6483 8.32031 13.8027 10.4747 13.8027 13.123Z" fill="#630A10"/>
<path d="M9 2.58984L10.8565 4.32527L9 6.62572H0.605381C0.271211 6.62572 0 6.35451 0 6.02034V4.78132C0 3.57298 0.983139 2.58984 2.19148 2.58984H9Z" fill="#E3E2E8"/>
<path d="M9.00177 12.2669L9.36499 13.1229L9.00177 13.9789L8.17401 14.8066C8.05576 14.9249 7.90118 14.9838 7.74621 14.9838C7.59123 14.9838 7.43625 14.9249 7.318 14.8066C7.0815 14.5701 7.0815 14.1867 7.318 13.9506L8.14576 13.1229L7.318 12.2951C7.0815 12.059 7.0815 11.6756 7.318 11.4391C7.5545 11.2026 7.93791 11.2026 8.17401 11.4391L9.00177 12.2669Z" fill="#E6F0F2"/>
<path d="M18 4.78132V6.02034C18 6.35451 17.7288 6.62572 17.3946 6.62572H9V2.58984H15.8085C17.0169 2.58984 18 3.57298 18 4.78132Z" fill="#A09DB2"/>
<path d="M10.6838 13.9506C10.9203 14.1867 10.9203 14.5701 10.6838 14.8066C10.5655 14.9249 10.4105 14.9838 10.2556 14.9838C10.1006 14.9838 9.94561 14.9249 9.82776 14.8066L9 13.9789V12.2669L9.82776 11.4391C10.0639 11.2026 10.4473 11.2026 10.6838 11.4391C10.9203 11.6756 10.9203 12.059 10.6838 12.2951L9.85601 13.1229L10.6838 13.9506Z" fill="#CFE2E6"/>
</svg>
