<svg width="50" height="50" viewBox="0 0 50 50" fill="none" xmlns="http://www.w3.org/2000/svg">
<rect width="50" height="50" rx="20" fill="#34835E"/>
<path d="M21.7857 31.25L21.2163 31.7381C21.3588 31.9043 21.5668 32 21.7857 32C22.0047 32 22.2127 31.9043 22.3552 31.7381L21.7857 31.25ZM33.0694 19.2381C33.339 18.9236 33.3026 18.4501 32.9881 18.1806C32.6736 17.911 32.2001 17.9474 31.9306 18.2619L33.0694 19.2381ZM18.0694 25.7619C17.7999 25.4474 17.3264 25.411 17.0119 25.6806C16.6974 25.9501 16.661 26.4236 16.9306 26.7381L18.0694 25.7619ZM22.3552 31.7381L33.0694 19.2381L31.9306 18.2619L21.2163 30.7619L22.3552 31.7381ZM22.3552 30.7619L18.0694 25.7619L16.9306 26.7381L21.2163 31.7381L22.3552 30.7619Z" fill="#FCF0C8"/>
</svg>
