<svg width="18" height="20" viewBox="0 0 18 20" fill="none" xmlns="http://www.w3.org/2000/svg">
<path fill-rule="evenodd" clip-rule="evenodd" d="M10.459 1.21311L5.56304 11.7131C5.39404 12.0741 5.37604 12.4861 5.51304 12.8601C5.92004 13.9781 7.06404 17.1221 7.06404 17.1221C7.15804 17.3811 7.44504 17.5151 7.70504 17.4211C7.70504 17.4211 10.848 16.2771 11.967 15.8701C12.34 15.7341 12.645 15.4551 12.813 15.0941C13.572 13.4671 16.5881 6.99811 17.7091 4.59411C17.8781 4.23311 17.8961 3.82111 17.7601 3.44711C17.6231 3.07311 17.3441 2.76811 16.9841 2.60011C15.7781 2.03811 13.658 1.05011 12.452 0.487105C12.092 0.319105 11.679 0.301105 11.305 0.437105C10.932 0.573105 10.627 0.852105 10.459 1.21311Z" fill="#A09DB2"/>
<path fill-rule="evenodd" clip-rule="evenodd" d="M9.41519 3.45117L8.99219 4.35917L9.40719 4.58317C9.41519 4.58817 9.42419 4.59217 9.43319 4.59617L15.7772 7.55417L16.2312 7.76517L16.6532 6.85917L16.1992 6.64817L9.86919 3.69617L9.41519 3.45117Z" fill="#E3E2E8"/>
<path fill-rule="evenodd" clip-rule="evenodd" d="M0.5 19.6533H16.5C16.776 19.6533 17 19.4293 17 19.1533C17 18.8773 16.776 18.6533 16.5 18.6533H0.5C0.224 18.6533 0 18.8773 0 19.1533C0 19.4293 0.224 19.6533 0.5 19.6533Z" fill="#222222"/>
</svg>
