<svg width="24" height="25" viewBox="0 0 24 25" fill="none" xmlns="http://www.w3.org/2000/svg">
<path fill-rule="evenodd" clip-rule="evenodd" d="M3.93799 9.0797C7.55608 2.97343 16.4439 2.97343 20.062 9.0797C21.3127 11.1905 21.3127 13.8095 20.062 15.9203C16.4439 22.0266 7.55608 22.0266 3.93799 15.9203C2.68734 13.8095 2.68734 11.1905 3.93799 9.0797ZM9.36532 12.5548C9.36532 11.0934 10.5446 9.91018 11.9995 9.91018C13.4547 9.91018 14.6347 11.0937 14.6347 12.5548C14.6347 14.0148 13.4548 15.1984 11.9995 15.1984C10.5444 15.1984 9.36532 14.0151 9.36532 12.5548ZM11.9995 8.67147C9.86264 8.67147 8.13103 10.4095 8.13103 12.5548C8.13103 14.6992 9.86276 16.4371 11.9995 16.4371C14.136 16.4371 15.869 14.6995 15.869 12.5548C15.869 10.4093 14.1361 8.67147 11.9995 8.67147Z" fill="#A09DB2"/>
</svg>
