<svg width="24" height="25" viewBox="0 0 24 25" fill="none" xmlns="http://www.w3.org/2000/svg">
<path fill-rule="evenodd" clip-rule="evenodd" d="M19.7455 5.76749L5.85977 19.7036C5.5585 20.0059 5.07006 20.0059 4.7688 19.7036C4.46754 19.4012 4.46754 18.911 4.7688 18.6086L5.51323 17.8615C4.91868 17.2897 4.38692 16.6243 3.93799 15.8666C2.68734 13.7557 2.68734 11.1365 3.93799 9.0257C6.82254 4.1572 13.0431 3.17878 17.2796 6.05246L18.6545 4.67257C18.9558 4.37021 19.4442 4.37021 19.7455 4.67257C20.0467 4.97492 20.0467 5.46513 19.7455 5.76749ZM13.0857 10.2615C12.7578 10.1009 12.3894 10.0111 11.9995 10.0111C10.6298 10.0111 9.5196 11.125 9.5196 12.501C9.5196 12.8922 9.60908 13.2616 9.76887 13.5904L13.0857 10.2615Z" fill="#630A10"/>
<path d="M19.0047 8.75594C19.3709 8.5374 19.8443 8.65817 20.062 9.02569C21.3127 11.1365 21.3127 13.7557 20.062 15.8666C17.6482 19.9406 12.8946 21.2877 8.93695 19.9419C8.53343 19.8047 8.31715 19.3651 8.45387 18.9602C8.59059 18.5552 9.02854 18.3381 9.43206 18.4753C12.7646 19.6086 16.7281 18.4638 18.7359 15.0751C19.6976 13.4521 19.6976 11.4402 18.7359 9.81711C18.5181 9.44959 18.6385 8.97449 19.0047 8.75594Z" fill="#630A10"/>
<path d="M15.2518 11.7267C15.6779 11.7267 16.0233 12.0734 16.0233 12.501C16.0233 14.7313 14.2211 16.5383 11.9995 16.5383C11.5734 16.5383 11.2281 16.1917 11.2281 15.7641C11.2281 15.3365 11.5734 14.9898 11.9995 14.9898C13.3696 14.9898 14.4804 13.8754 14.4804 12.501C14.4804 12.0734 14.8258 11.7267 15.2518 11.7267Z" fill="#630A10"/>
</svg>
