<svg width="20" height="21" viewBox="0 0 20 21" fill="none" xmlns="http://www.w3.org/2000/svg">
<path d="M18.3346 10.4993C18.3346 15.0993 14.6013 18.8327 10.0013 18.8327C5.4013 18.8327 1.66797 15.0993 1.66797 10.4993C1.66797 5.89935 5.4013 2.16602 10.0013 2.16602" stroke="#B8B8B8" stroke-linecap="round" stroke-linejoin="round"/>
<path d="M12.3095 7.24856C12.1071 7.10464 11.8283 7.15411 11.6843 7.3565L10.0022 9.73123L8.32015 7.3565C8.17623 7.15411 7.89288 7.10464 7.69049 7.24856C7.4881 7.39249 7.43862 7.67583 7.58255 7.87823L9.46704 10.5363H8.38312C8.13575 10.5363 7.93336 10.7387 7.93336 10.9861C7.93336 11.2334 8.13575 11.4358 8.38312 11.4358H9.56598V11.7057H8.38312C8.13575 11.7057 7.93336 11.9081 7.93336 12.1554C7.93336 12.4028 8.13575 12.6052 8.38312 12.6052H9.56598V13.5767C9.56598 13.824 9.76837 14.0264 10.0157 14.0264C10.2631 14.0264 10.4655 13.824 10.4655 13.5767V12.6052H11.4505C11.6978 12.6052 11.9002 12.4028 11.9002 12.1554C11.9002 11.9081 11.6978 11.7057 11.4505 11.7057H10.4655V11.4358H11.4505C11.6978 11.4358 11.9002 11.2334 11.9002 10.9861C11.9002 10.7387 11.6978 10.5363 11.4505 10.5363H10.5375L12.4175 7.87823C12.5614 7.67134 12.5119 7.39249 12.3095 7.24856Z" fill="#B8B8B8"/>
<path d="M18.3333 5.49935V2.16602H15" stroke="#B8B8B8" stroke-linecap="round" stroke-linejoin="round"/>
<path d="M14.168 6.33268L18.3346 2.16602" stroke="#B8B8B8" stroke-linecap="round" stroke-linejoin="round"/>
</svg>
