<svg width="21" height="21" viewBox="0 0 21 21" fill="none" xmlns="http://www.w3.org/2000/svg">
<path d="M13.8728 7.12985C14.0965 7.35356 14.3842 7.45964 14.668 7.45964C14.9518 7.45964 15.2395 7.35356 15.4632 7.12985L16.7758 5.81726C17.7514 7.13043 18.3346 8.74668 18.3346 10.5013C18.3346 14.8252 14.8252 18.3346 10.5013 18.3346C6.17744 18.3346 2.66797 14.8252 2.66797 10.5013C2.66797 6.17744 6.17744 2.66797 10.5013 2.66797C12.2559 2.66797 13.8722 3.25117 15.1853 4.22681L13.8728 5.53942C13.4358 5.97635 13.4358 6.69293 13.8728 7.12985Z" fill="#630A10" fill-opacity="0.25" stroke="#630A10"/>
<path d="M12.3095 7.58255C12.1071 7.43862 11.8283 7.4881 11.6843 7.69049L10.0022 10.0652L8.32015 7.69049C8.17623 7.4881 7.89288 7.43862 7.69049 7.58255C7.4881 7.72647 7.43862 8.00982 7.58255 8.21221L9.46704 10.8703H8.38312C8.13575 10.8703 7.93336 11.0727 7.93336 11.32C7.93336 11.5674 8.13575 11.7698 8.38312 11.7698H9.56598V12.0397H8.38312C8.13575 12.0397 7.93336 12.2421 7.93336 12.4894C7.93336 12.7368 8.13575 12.9392 8.38312 12.9392H9.56598V13.9107C9.56598 14.158 9.76837 14.3604 10.0157 14.3604C10.2631 14.3604 10.4655 14.158 10.4655 13.9107V12.9392H11.4505C11.6978 12.9392 11.9002 12.7368 11.9002 12.4894C11.9002 12.2421 11.6978 12.0397 11.4505 12.0397H10.4655V11.7698H11.4505C11.6978 11.7698 11.9002 11.5674 11.9002 11.32C11.9002 11.0727 11.6978 10.8703 11.4505 10.8703H10.5375L12.4175 8.21221C12.5614 8.00532 12.5119 7.72647 12.3095 7.58255Z" fill="#630A10"/>
<path d="M19.4089 1.92682C19.3422 1.77682 19.2255 1.65183 19.0672 1.58516C18.9922 1.55183 18.9089 1.53516 18.8255 1.53516H15.4922C15.1505 1.53516 14.8672 1.81849 14.8672 2.16016C14.8672 2.50182 15.1505 2.78516 15.4922 2.78516H17.3172L15.9255 4.17683C16.2422 4.45183 16.5339 4.74349 16.8089 5.06016L18.2005 3.66849V5.50182C18.2005 5.84349 18.4839 6.12682 18.8255 6.12682C19.1672 6.12682 19.4505 5.84349 19.4505 5.50182V2.16849C19.4589 2.08516 19.4422 2.01016 19.4089 1.92682Z" fill="#630A10"/>
</svg>
