<svg width="50" height="50" viewBox="0 0 50 50" fill="none" xmlns="http://www.w3.org/2000/svg">
<rect width="50" height="50" rx="20" fill="#630A10"/>
<path d="M25 25C27.7614 25 30 22.7614 30 20C30 17.2386 27.7614 15 25 15C22.2386 15 20 17.2386 20 20C20 22.7614 22.2386 25 25 25Z" stroke="white" stroke-width="1.5" stroke-linecap="round" stroke-linejoin="round"/>
<path d="M16.4102 35C16.4102 31.13 20.2602 28 25.0002 28C25.9602 28 26.8902 28.13 27.7602 28.37" stroke="white" stroke-width="1.5" stroke-linecap="round" stroke-linejoin="round"/>
<path d="M35 31C35 31.32 34.96 31.63 34.88 31.93C34.79 32.33 34.63 32.72 34.42 33.06C33.73 34.22 32.46 35 31 35C29.97 35 29.04 34.61 28.34 33.97C28.04 33.71 27.78 33.4 27.58 33.06C27.21 32.46 27 31.75 27 31C27 29.92 27.43 28.93 28.13 28.21C28.86 27.46 29.88 27 31 27C32.18 27 33.25 27.51 33.97 28.33C34.61 29.04 35 29.98 35 31Z" stroke="white" stroke-width="1.5" stroke-miterlimit="10" stroke-linecap="round" stroke-linejoin="round"/>
<path d="M32.4917 30.98H29.5117" stroke="white" stroke-width="1.5" stroke-miterlimit="10" stroke-linecap="round" stroke-linejoin="round"/>
<path d="M31 29.52V32.51" stroke="white" stroke-width="1.5" stroke-miterlimit="10" stroke-linecap="round" stroke-linejoin="round"/>
</svg>
