<svg width="100" height="100" viewBox="0 0 100 100" fill="none" xmlns="http://www.w3.org/2000/svg">
<g clip-path="url(#clip0_3894_54138)">
<path d="M50 100C77.6142 100 100 77.6142 100 50C100 22.3858 77.6142 0 50 0C22.3858 0 0 22.3858 0 50C0 77.6142 22.3858 100 50 100Z" fill="#CB2B1F"/>
<path d="M100.004 50.0004C100.004 48.8217 99.9596 47.6533 99.8793 46.4949L76.5551 23.1707C71.6889 17.9805 64.7811 14.7246 57.1488 14.7246H42.8584C28.2152 14.7246 16.2344 26.7055 16.2344 41.3486V51.7426C16.2344 58.5137 18.7975 64.7143 22.9994 69.4254L19.7215 79.7275L38.7148 98.7209C42.3426 99.558 46.1213 100 50.0035 100C77.6178 100 100.004 77.6146 100.004 50.0004Z" fill="#911F27"/>
<path d="M57.1488 14.7236H42.8584C28.2152 14.7236 16.2344 26.7045 16.2344 41.3477V51.7416C16.2344 58.5127 18.7975 64.7133 22.9996 69.4244L19.7217 79.7266L31.3686 75.742C34.8518 77.4223 38.7502 78.3654 42.8584 78.3654H57.1488C71.792 78.3654 83.7728 66.3846 83.7728 51.7414V41.3475C83.7728 26.7045 71.7922 14.7236 57.1488 14.7236Z" fill="white"/>
<path d="M48.7585 53.7372C46.8448 53.7374 45.2361 52.1662 45.6479 50.2974C45.8101 49.5614 46.0279 48.8601 46.3014 48.1938C46.9727 46.5559 48.3586 45.1287 50.4592 43.91C51.0891 43.532 51.8658 43.102 52.7898 42.6186C53.7133 42.1361 54.6168 41.5584 55.4988 40.8861C56.3809 40.2148 57.1258 39.4273 57.7352 38.5238C58.3436 37.6211 58.6486 36.5818 58.6486 35.4055C58.6486 34.5234 58.4803 33.7469 58.1447 33.0746C57.8082 32.4033 57.3672 31.8363 56.8217 31.3738C56.2754 30.9121 55.6346 30.5658 54.9004 30.3344C54.1652 30.1039 53.4199 29.9879 52.6641 29.9879C51.7398 29.9879 50.9002 30.1455 50.1443 30.4604C49.3883 30.7752 48.7053 31.175 48.0971 31.6572C47.4879 32.1404 46.9414 32.6869 46.4592 33.2951C45.7412 34.2003 44.4324 34.477 43.4813 33.8211L42.1356 32.8929C40.7454 31.9342 40.1693 30.0905 41.1622 28.7246C41.4 28.3975 41.6536 28.0836 41.9232 27.7828C42.826 26.775 43.8545 25.9244 45.0102 25.2314C46.1648 24.5385 47.4139 24.0139 48.7584 23.6566C50.102 23.3002 51.4877 23.1211 52.916 23.1211C54.5115 23.1211 56.0865 23.3523 57.6406 23.8141C59.1939 24.2766 60.5906 25.0109 61.8299 26.0189C63.0682 27.027 64.0762 28.3182 64.8537 29.8932C65.6305 31.468 66.0191 33.348 66.0191 35.5313C66.0191 36.876 65.8617 38.0619 65.5467 39.0904C65.2316 40.1201 64.7799 41.0541 64.1922 41.8938C63.6037 42.7344 62.9107 43.4902 62.1135 44.1617C61.3152 44.834 60.4127 45.4846 59.4045 46.1145C58.5639 46.6186 57.7244 47.1018 56.8846 47.5635C56.0439 48.026 55.2781 48.5398 54.5854 49.1068C53.8924 49.6736 53.3254 50.3254 52.8846 51.0596C52.0913 52.382 50.973 53.737 49.4309 53.7372L48.7585 53.7372ZM48.9156 68.4154C46.9847 68.4154 45.4193 66.8501 45.4193 64.9191V63.2182C45.4193 61.2872 46.9847 59.7219 48.9156 59.7219C50.8466 59.7219 52.4119 61.2872 52.4119 63.2182V64.9191C52.4119 66.8501 50.8466 68.4154 48.9156 68.4154Z" fill="#FACE7F"/>
</g>
<defs>
<clipPath id="clip0_3894_54138">
<rect width="100" height="100" fill="white"/>
</clipPath>
</defs>
</svg>
