<svg width="24" height="24" viewBox="0 0 24 24" fill="none" xmlns="http://www.w3.org/2000/svg">
<path d="M13.7659 21.1468C13.7659 19.5968 12.5049 18.3403 10.9493 18.3403C9.39376 18.3403 8.13281 19.5968 8.13281 21.1468C8.13281 22.6968 9.39376 23.9532 10.9493 23.9532C12.5049 23.9532 13.7659 22.6968 13.7659 21.1468Z" fill="#F7C92B"/>
<path d="M10.9514 18.3403C10.6667 18.3403 10.3919 18.3828 10.1328 18.4612C11.289 18.8105 12.1307 19.8804 12.1307 21.1468C12.1307 22.413 11.289 23.483 10.1328 23.8324C10.3919 23.9108 10.6667 23.9532 10.9514 23.9532C12.507 23.9532 13.768 22.6968 13.768 21.1468C13.768 19.5968 12.507 18.3403 10.9514 18.3403Z" fill="#F2B51D"/>
<path d="M11.2812 4.76701C10.3766 4.9481 9.49614 4.36436 9.31433 3.46293C9.13251 2.56169 9.7185 1.68425 10.623 1.50316C11.5275 1.32207 12.4081 1.90581 12.5899 2.80723C12.7715 3.70848 12.1857 4.58592 11.2812 4.76701Z" fill="#F7C92B"/>
<path d="M12.5896 2.80723C12.4078 1.90581 11.5272 1.32207 10.6227 1.50316C10.5385 1.52 10.4572 1.54307 10.3789 1.57127C10.9069 1.7639 11.325 2.21763 11.4439 2.80723C11.6088 3.62462 11.1421 4.42241 10.3791 4.6989C10.6583 4.8007 10.9682 4.82963 11.281 4.76701C12.1855 4.58592 12.7713 3.70848 12.5896 2.80723Z" fill="#F2B51D"/>
<path d="M17.9273 20.6768H3.9753C2.72683 20.6768 1.71484 19.6685 1.71484 18.4246C1.71484 17.736 2.02765 17.0843 2.56556 16.652L3.01377 16.2916C4.05052 15.4585 4.65338 14.2026 4.65338 12.8754V10.5084C4.65338 7.01605 7.4945 4.18506 10.9994 4.18506C14.5041 4.18506 17.3454 7.01605 17.3454 10.5084V12.9192C17.3454 14.2213 17.9257 15.4563 18.9294 16.2902L19.3659 16.6527C19.8867 17.0854 20.1878 17.7263 20.1878 18.4019V18.4246C20.1878 19.6685 19.1758 20.6768 17.9273 20.6768Z" fill="#F7E249"/>
<path d="M19.3655 16.6529L18.929 16.2903C17.9253 15.4563 17.345 14.2214 17.345 12.9192V10.5084C17.345 7.01624 14.5037 4.18506 10.999 4.18506C10.378 4.18506 9.77802 4.27441 9.21094 4.44012C11.8451 5.20935 13.7689 7.63495 13.7689 10.5084V12.9192C13.7689 14.2214 14.3492 15.4563 15.3529 16.2903L15.7896 16.6529C16.3103 17.0856 16.6115 17.7264 16.6115 18.4021V18.4248C16.6115 19.6686 15.5995 20.677 14.351 20.677H17.9271C19.1754 20.677 20.1874 19.6686 20.1874 18.4248V18.4021C20.1874 17.7264 19.8863 17.0856 19.3655 16.6529Z" fill="#F7C92B"/>
</svg>
