<svg width="19" height="18" viewBox="0 0 19 18" fill="none" xmlns="http://www.w3.org/2000/svg">
<path d="M11.389 0.309476C9.62988 -0.103159 7.79913 -0.103158 6.04001 0.309476C3.48734 0.908251 1.49419 2.9014 0.895414 5.45407C0.482779 7.21319 0.482779 9.04394 0.895414 10.8031C1.49419 13.3557 3.48734 15.3489 6.04001 15.9477C7.79913 16.3603 9.62987 16.3603 11.389 15.9477C12.4214 15.7055 13.3624 15.2352 14.1565 14.5921L17.3529 17.7884C17.635 18.0705 18.0923 18.0705 18.3744 17.7884C18.6565 17.5064 18.6565 17.049 18.3744 16.767L15.178 13.5706C15.8211 12.7764 16.2914 11.8355 16.5336 10.8031C16.9462 9.04394 16.9462 7.21319 16.5336 5.45407C15.9348 2.9014 13.9417 0.908251 11.389 0.309476Z" fill="#E3E2E8"/>
</svg>
