<svg width="20" height="20" viewBox="0 0 20 20" fill="none" xmlns="http://www.w3.org/2000/svg">
<path d="M10 12.5C11.3807 12.5 12.5 11.3807 12.5 10C12.5 8.61929 11.3807 7.5 10 7.5C8.61929 7.5 7.5 8.61929 7.5 10C7.5 11.3807 8.61929 12.5 10 12.5Z" stroke="#630A10" stroke-miterlimit="10" stroke-linecap="round" stroke-linejoin="round"/>
<path d="M1.66797 10.7329V9.26621C1.66797 8.39954 2.3763 7.68287 3.2513 7.68287C4.75964 7.68287 5.3763 6.61621 4.61797 5.30787C4.18464 4.55787 4.44297 3.58287 5.2013 3.14954L6.64297 2.32454C7.3013 1.93287 8.1513 2.16621 8.54297 2.82454L8.63464 2.98287C9.38464 4.29121 10.618 4.29121 11.3763 2.98287L11.468 2.82454C11.8596 2.16621 12.7096 1.93287 13.368 2.32454L14.8096 3.14954C15.568 3.58287 15.8263 4.55787 15.393 5.30787C14.6346 6.61621 15.2513 7.68287 16.7596 7.68287C17.6263 7.68287 18.343 8.39121 18.343 9.26621V10.7329C18.343 11.5995 17.6346 12.3162 16.7596 12.3162C15.2513 12.3162 14.6346 13.3829 15.393 14.6912C15.8263 15.4495 15.568 16.4162 14.8096 16.8495L13.368 17.6745C12.7096 18.0662 11.8596 17.8329 11.468 17.1745L11.3763 17.0162C10.6263 15.7079 9.39297 15.7079 8.63464 17.0162L8.54297 17.1745C8.1513 17.8329 7.3013 18.0662 6.64297 17.6745L5.2013 16.8495C4.44297 16.4162 4.18464 15.4412 4.61797 14.6912C5.3763 13.3829 4.75964 12.3162 3.2513 12.3162C2.3763 12.3162 1.66797 11.5995 1.66797 10.7329Z" fill="#630A10" fill-opacity="0.25" stroke="#630A10" stroke-miterlimit="10" stroke-linecap="round" stroke-linejoin="round"/>
</svg>
