<svg width="20" height="21" viewBox="0 0 20 21" fill="none" xmlns="http://www.w3.org/2000/svg">
<path d="M2.50781 9.8501V13.5918C2.50781 17.3334 4.00781 18.8334 7.74948 18.8334H12.2411C15.9828 18.8334 17.4828 17.3334 17.4828 13.5918V9.8501" fill="#630A10" fill-opacity="0.2"/>
<path d="M2.50781 9.8501V13.5918C2.50781 17.3334 4.00781 18.8334 7.74948 18.8334H12.2411C15.9828 18.8334 17.4828 17.3334 17.4828 13.5918V9.8501" stroke="#630A10" stroke-linecap="round" stroke-linejoin="round"/>
<path d="M10.0017 10.4998C11.5267 10.4998 12.6517 9.25817 12.5017 7.73317L11.9517 2.1665H8.06003L7.5017 7.73317C7.3517 9.25817 8.4767 10.4998 10.0017 10.4998Z" fill="#630A10" fill-opacity="0.2" stroke="#630A10" stroke-linecap="round" stroke-linejoin="round"/>
<path d="M15.2596 10.4998C16.943 10.4998 18.1763 9.13317 18.0096 7.45817L17.7763 5.1665C17.4763 2.99984 16.643 2.1665 14.4596 2.1665H11.918L12.5013 8.00817C12.643 9.38317 13.8846 10.4998 15.2596 10.4998Z" fill="#630A10" fill-opacity="0.2" stroke="#630A10" stroke-linecap="round" stroke-linejoin="round"/>
<path d="M4.69868 10.4998C6.07368 10.4998 7.31535 9.38317 7.44868 8.00817L7.63202 6.1665L8.03202 2.1665H5.49035C3.30702 2.1665 2.47368 2.99984 2.17368 5.1665L1.94868 7.45817C1.78201 9.13317 3.01535 10.4998 4.69868 10.4998Z" fill="#630A10" fill-opacity="0.2" stroke="#630A10" stroke-linecap="round" stroke-linejoin="round"/>
<path d="M10.0013 14.6665C8.60964 14.6665 7.91797 15.3582 7.91797 16.7498V18.8332H12.0846V16.7498C12.0846 15.3582 11.393 14.6665 10.0013 14.6665Z" stroke="#630A10" stroke-linecap="round" stroke-linejoin="round"/>
</svg>
