<svg width="20" height="21" viewBox="0 0 20 21" fill="none" xmlns="http://www.w3.org/2000/svg">
<path d="M2.50781 9.84961V13.5913C2.50781 17.3329 4.00781 18.8329 7.74948 18.8329H12.2411C15.9828 18.8329 17.4828 17.3329 17.4828 13.5913V9.84961" stroke="#B8B8B8" stroke-linecap="round" stroke-linejoin="round"/>
<path d="M10.0017 10.4993C11.5267 10.4993 12.6517 9.25768 12.5017 7.73268L11.9517 2.16602H8.06003L7.5017 7.73268C7.3517 9.25768 8.4767 10.4993 10.0017 10.4993Z" stroke="#B8B8B8" stroke-linecap="round" stroke-linejoin="round"/>
<path d="M15.2596 10.4993C16.943 10.4993 18.1763 9.13268 18.0096 7.45768L17.7763 5.16602C17.4763 2.99935 16.643 2.16602 14.4596 2.16602H11.918L12.5013 8.00768C12.643 9.38268 13.8846 10.4993 15.2596 10.4993Z" stroke="#B8B8B8" stroke-linecap="round" stroke-linejoin="round"/>
<path d="M4.69868 10.4993C6.07368 10.4993 7.31535 9.38268 7.44868 8.00768L7.63202 6.16602L8.03202 2.16602H5.49035C3.30702 2.16602 2.47368 2.99935 2.17368 5.16602L1.94868 7.45768C1.78201 9.13268 3.01535 10.4993 4.69868 10.4993Z" stroke="#B8B8B8" stroke-linecap="round" stroke-linejoin="round"/>
<path d="M10.0013 14.666C8.60964 14.666 7.91797 15.3577 7.91797 16.7493V18.8327H12.0846V16.7493C12.0846 15.3577 11.393 14.666 10.0013 14.666Z" stroke="#B8B8B8" stroke-linecap="round" stroke-linejoin="round"/>
</svg>
