<svg width="30" height="30" viewBox="0 0 30 30" fill="none" xmlns="http://www.w3.org/2000/svg">
<path d="M11.7857 21.25L11.2163 21.7381C11.3588 21.9043 11.5668 22 11.7857 22C12.0047 22 12.2127 21.9043 12.3552 21.7381L11.7857 21.25ZM23.0694 9.23809C23.339 8.9236 23.3026 8.45012 22.9881 8.18056C22.6736 7.91099 22.2001 7.94741 21.9306 8.26191L23.0694 9.23809ZM8.06944 15.7619C7.79988 15.4474 7.3264 15.411 7.01191 15.6806C6.69741 15.9501 6.66099 16.4236 6.93056 16.7381L8.06944 15.7619ZM12.3552 21.7381L23.0694 9.23809L21.9306 8.26191L11.2163 20.7619L12.3552 21.7381ZM12.3552 20.7619L8.06944 15.7619L6.93056 16.7381L11.2163 21.7381L12.3552 20.7619Z" fill="#34835E"/>
</svg>
