<svg width="24" height="25" viewBox="0 0 24 25" fill="none" xmlns="http://www.w3.org/2000/svg">
<path d="M11.191 3.37873H11.9981L12.6439 2.77335L11.9981 2.16797H11.191C9.52213 2.16797 8.16406 3.52604 8.16406 5.19487C8.16406 5.52905 8.43527 5.80026 8.76944 5.80026H11.9981V5.11416L9.47855 4.58949C9.72837 3.88483 10.4016 3.37873 11.191 3.37873Z" fill="#B8B8B8"/>
<path d="M15.8341 5.19487C15.8341 5.52905 15.5629 5.80026 15.2287 5.80026H12V5.11416L14.5196 4.58949C14.2698 3.88483 13.5966 3.37873 12.8072 3.37873H12V2.16797H12.8072C14.4764 2.16797 15.8341 3.52604 15.8341 5.19487Z" fill="#222222"/>
<path d="M12.0027 8.11133L15.0296 13.6304L12.0027 22.8322H8.79745C7.85265 22.8322 6.95063 22.4782 6.25808 21.8361C5.56512 21.1936 5.14418 20.3211 5.07274 19.3791L4.21875 8.11133H12.0027Z" fill="#E3E2E8"/>
<path d="M19.784 8.11035L18.93 19.3781C18.8586 20.3201 18.4376 21.1926 17.7447 21.8352C17.0521 22.4773 16.1501 22.8312 15.2053 22.8312H12V8.11035H19.784Z" fill="#A09DB2"/>
<path d="M11.998 10.3203L14.1774 14.5983L11.998 19.9257C9.34966 19.9257 7.19531 17.7713 7.19531 15.123C7.19531 12.4747 9.34966 10.3203 11.998 10.3203Z" fill="#CB2B1F"/>
<path d="M16.8027 15.123C16.8027 17.7713 14.6483 19.9257 12 19.9257V10.3203C14.6483 10.3203 16.8027 12.4747 16.8027 15.123Z" fill="#630A10"/>
<path d="M12 4.58984L13.8565 6.32527L12 8.62572H3.60538C3.27121 8.62572 3 8.35451 3 8.02034V6.78132C3 5.57298 3.98314 4.58984 5.19148 4.58984H12Z" fill="#E3E2E8"/>
<path d="M12.0018 14.2669L12.365 15.1229L12.0018 15.9789L11.174 16.8066C11.0558 16.9249 10.9012 16.9838 10.7462 16.9838C10.5912 16.9838 10.4363 16.9249 10.318 16.8066C10.0815 16.5701 10.0815 16.1867 10.318 15.9506L11.1458 15.1229L10.318 14.2951C10.0815 14.059 10.0815 13.6756 10.318 13.4391C10.5545 13.2026 10.9379 13.2026 11.174 13.4391L12.0018 14.2669Z" fill="#E6F0F2"/>
<path d="M21 6.78132V8.02034C21 8.35451 20.7288 8.62572 20.3946 8.62572H12V4.58984H18.8085C20.0169 4.58984 21 5.57298 21 6.78132Z" fill="#A09DB2"/>
<path d="M13.6838 15.9506C13.9203 16.1867 13.9203 16.5701 13.6838 16.8066C13.5655 16.9249 13.4105 16.9838 13.2556 16.9838C13.1006 16.9838 12.9456 16.9249 12.8278 16.8066L12 15.9789V14.2669L12.8278 13.4391C13.0639 13.2026 13.4473 13.2026 13.6838 13.4391C13.9203 13.6756 13.9203 14.059 13.6838 14.2951L12.856 15.1229L13.6838 15.9506Z" fill="#CFE2E6"/>
</svg>
